<svg width="43" height="38" viewBox="0 0 43 38" fill="none" xmlns="http://www.w3.org/2000/svg">
<path d="M41.2723 1.06759C40.8474 0.707607 40.333 0.469461 39.7837 0.378464C39.2343 0.287467 38.6706 0.347019 38.1524 0.550792L2.81876 14.4277C2.19902 14.6639 1.67407 15.0972 1.32475 15.6609C0.975436 16.2247 0.821118 16.8876 0.885561 17.5477C0.943055 18.2075 1.21289 18.8309 1.65462 19.3243C2.09634 19.8178 2.68613 20.1548 3.33556 20.2848L12.3125 22.0648V33.2813C12.3122 33.888 12.4921 34.4813 12.8295 34.9856C13.1669 35.49 13.6465 35.8827 14.2074 36.1141C14.5787 36.2635 14.9748 36.3414 15.375 36.3438C15.7772 36.3452 16.1757 36.2663 16.5471 36.1119C16.9185 35.9574 17.2553 35.7304 17.5379 35.4441L22.5145 30.4867L30.0367 37.1094C30.5921 37.5992 31.306 37.8712 32.0465 37.875C32.3721 37.8817 32.6963 37.8298 33.0035 37.7219C33.5086 37.5621 33.9633 37.2732 34.3225 36.8837C34.6817 36.4943 34.933 36.0179 35.0516 35.5016L42.2484 4.07267C42.3742 3.53035 42.3498 2.964 42.1778 2.43452C42.0058 1.90504 41.6928 1.43245 41.2723 1.06759V1.06759ZM13.4801 19.1746L3.94806 17.2797L30.6684 6.77149L13.4801 19.1746ZM15.375 33.2813V24.2086L20.1985 28.4578L15.375 33.2813ZM32.0656 34.8125L16.2938 20.9356L39.0137 4.53204L32.0656 34.8125Z" fill="black"/>
</svg>
